<svg width="33" height="33" viewBox="0 0 33 33" fill="none" xmlns="http://www.w3.org/2000/svg">
<path fill-rule="evenodd" clip-rule="evenodd" d="M16.4 4.1001C13.0593 4.1001 12.6411 4.11404 11.3291 4.1739C10.0196 4.23376 9.12497 4.44204 8.34269 4.74626C7.52269 5.05458 6.77895 5.53838 6.16395 6.16486C5.53847 6.77915 5.05437 7.52236 4.74535 8.34278C4.44277 9.12506 4.23367 10.0205 4.17381 11.33C4.11477 12.6412 4.10001 13.0586 4.10001 16.4001C4.10001 19.7416 4.11395 20.159 4.17381 21.471C4.23367 22.7805 4.44195 23.6751 4.74617 24.4574C5.05449 25.2774 5.53829 26.0212 6.16477 26.6362C6.77907 27.2616 7.52228 27.7457 8.34269 28.0548C9.12497 28.3582 10.0196 28.5664 11.3291 28.6263C12.6411 28.6862 13.0593 28.7001 16.4 28.7001C19.7407 28.7001 20.1589 28.6862 21.4709 28.6263C22.7804 28.5664 23.675 28.3582 24.4573 28.0539C25.2773 27.7456 26.0211 27.2618 26.6361 26.6353C27.2615 26.021 27.7456 25.2778 28.0547 24.4574C28.3581 23.6751 28.5663 22.7805 28.6262 21.471C28.6861 20.159 28.7 19.7408 28.7 16.4001C28.7 13.0594 28.6861 12.6412 28.6262 11.3292C28.5663 10.0197 28.3581 9.12506 28.0538 8.34278C27.745 7.52201 27.2609 6.77848 26.6352 6.16404C26.021 5.53856 25.2777 5.05446 24.4573 4.74544C23.675 4.44286 22.7796 4.23376 21.4701 4.1739C20.1589 4.11486 19.7415 4.1001 16.4 4.1001ZM16.4 6.31656C19.6841 6.31656 20.0736 6.32886 21.3708 6.3879C22.5697 6.44284 23.2208 6.6421 23.6545 6.81184C24.2285 7.03406 24.6385 7.30138 25.069 7.73106C25.4995 8.16156 25.766 8.57156 25.9883 9.14556C26.1572 9.57934 26.3573 10.2304 26.4122 11.4293C26.4712 12.7265 26.4835 13.116 26.4835 16.4001C26.4835 19.6842 26.4712 20.0737 26.4122 21.3709C26.3573 22.5698 26.158 23.2209 25.9883 23.6546C25.7914 24.1889 25.4773 24.6723 25.069 25.0691C24.6722 25.4775 24.1889 25.7916 23.6545 25.9884C23.2208 26.1573 22.5697 26.3574 21.3708 26.4123C20.0736 26.4713 19.6849 26.4836 16.4 26.4836C13.1151 26.4836 12.7264 26.4713 11.4292 26.4123C10.2303 26.3574 9.57925 26.1581 9.14547 25.9884C8.6112 25.7915 8.12785 25.4774 7.73097 25.0691C7.32275 24.6722 7.00865 24.1889 6.81175 23.6546C6.64283 23.2209 6.44275 22.5698 6.38781 21.3709C6.32877 20.0737 6.31647 19.6842 6.31647 16.4001C6.31647 13.116 6.32877 12.7265 6.38781 11.4293C6.44275 10.2304 6.64201 9.57934 6.81175 9.14556C7.03397 8.57156 7.30129 8.16156 7.73097 7.73106C8.1278 7.32273 8.61116 7.00862 9.14547 6.81184C9.57925 6.64292 10.2303 6.44284 11.4292 6.3879C12.7264 6.32886 13.1159 6.31656 16.4 6.31656V6.31656Z" fill="white"/>
<path fill-rule="evenodd" clip-rule="evenodd" d="M16.4 20.5043C15.861 20.5043 15.3273 20.3981 14.8294 20.1919C14.3315 19.9856 13.8791 19.6833 13.498 19.3022C13.1169 18.9211 12.8145 18.4687 12.6083 17.9708C12.402 17.4728 12.2959 16.9392 12.2959 16.4002C12.2959 15.8612 12.402 15.3276 12.6083 14.8296C12.8145 14.3317 13.1169 13.8793 13.498 13.4982C13.8791 13.1171 14.3315 12.8148 14.8294 12.6085C15.3273 12.4023 15.861 12.2961 16.4 12.2961C17.4885 12.2961 18.5324 12.7285 19.302 13.4982C20.0717 14.2678 20.5041 15.3117 20.5041 16.4002C20.5041 17.4887 20.0717 18.5326 19.302 19.3022C18.5324 20.0719 17.4885 20.5043 16.4 20.5043V20.5043ZM16.4 10.078C14.7232 10.078 13.1152 10.7441 11.9295 11.9297C10.7439 13.1154 10.0778 14.7234 10.0778 16.4002C10.0778 18.077 10.7439 19.685 11.9295 20.8707C13.1152 22.0563 14.7232 22.7224 16.4 22.7224C18.0767 22.7224 19.6848 22.0563 20.8705 20.8707C22.0561 19.685 22.7222 18.077 22.7222 16.4002C22.7222 14.7234 22.0561 13.1154 20.8705 11.9297C19.6848 10.7441 18.0767 10.078 16.4 10.078V10.078ZM24.5614 9.9632C24.5614 10.3596 24.404 10.7397 24.1237 11.0199C23.8435 11.3002 23.4633 11.4576 23.067 11.4576C22.6706 11.4576 22.2905 11.3002 22.0103 11.0199C21.73 10.7397 21.5725 10.3596 21.5725 9.9632C21.5725 9.56685 21.73 9.18673 22.0103 8.90646C22.2905 8.6262 22.6706 8.46875 23.067 8.46875C23.4633 8.46875 23.8435 8.6262 24.1237 8.90646C24.404 9.18673 24.5614 9.56685 24.5614 9.9632" fill="white"/>
</svg>
