<svg width="33" height="33" viewBox="0 0 33 33" fill="none" xmlns="http://www.w3.org/2000/svg">
<path d="M28.7 5.90892V26.8913C28.7 27.371 28.5094 27.8311 28.1702 28.1703C27.831 28.5095 27.3709 28.7001 26.8912 28.7001H5.90883C5.4291 28.7001 4.96902 28.5095 4.6298 28.1703C4.29058 27.8311 4.10001 27.371 4.10001 26.8913V5.90892C4.10001 5.42919 4.29058 4.96911 4.6298 4.62989C4.96902 4.29067 5.4291 4.1001 5.90883 4.1001H26.8912C27.3709 4.1001 27.831 4.29067 28.1702 4.62989C28.5094 4.96911 28.7 5.42919 28.7 5.90892V5.90892ZM11.3353 13.506H7.71765V25.0824H11.3353V13.506ZM11.6609 9.52657C11.6628 9.25292 11.6108 8.98158 11.5078 8.72804C11.4049 8.47449 11.253 8.24371 11.0608 8.04887C10.8687 7.85403 10.64 7.69895 10.3879 7.59247C10.1358 7.486 9.86524 7.43023 9.59159 7.42833H9.52648C8.96999 7.42833 8.4363 7.6494 8.0428 8.04289C7.6493 8.43639 7.42824 8.97008 7.42824 9.52657C7.42824 10.0831 7.6493 10.6167 8.0428 11.0102C8.4363 11.4037 8.96999 11.6248 9.52648 11.6248V11.6248C9.80014 11.6315 10.0724 11.5843 10.3278 11.4857C10.5832 11.3872 10.8167 11.2393 11.0149 11.0505C11.2131 10.8617 11.3722 10.6357 11.4831 10.3854C11.5939 10.135 11.6543 9.86535 11.6609 9.59169V9.52657ZM25.0824 18.0497C25.0824 14.5696 22.8684 13.2166 20.6688 13.2166C19.9487 13.1805 19.2316 13.3339 18.5892 13.6614C17.9468 13.989 17.4016 14.4792 17.0078 15.0833H16.9065V13.506H13.5059V25.0824H17.1235V18.9252C17.0712 18.2946 17.2699 17.6688 17.6763 17.1838C18.0827 16.6988 18.6641 16.3938 19.2941 16.335H19.4316C20.582 16.335 21.4358 17.0585 21.4358 18.8818V25.0824H25.0534L25.0824 18.0497Z" fill="white"/>
</svg>
